<?xml version="1.0" standalone="no"?>
<!DOCTYPE svg PUBLIC "-//W3C//DTD SVG 20010904//EN"
 "http://www.w3.org/TR/2001/REC-SVG-20010904/DTD/svg10.dtd">
<svg version="1.0" xmlns="http://www.w3.org/2000/svg"
 width="920.000000pt" height="913.000000pt" viewBox="0 0 920.000000 913.000000"
 preserveAspectRatio="xMidYMid meet">

<g transform="translate(0.000000,913.000000) scale(0.100000,-0.100000)"
fill="#000000" stroke="none">
<path d="M955 8693 c3 -16 19 -192 35 -393 16 -201 65 -806 110 -1345 76 -933
112 -1372 215 -2635 25 -305 82 -991 125 -1525 44 -533 89 -1087 100 -1230 11
-143 24 -271 28 -284 7 -22 107 -52 1522 -449 833 -233 1522 -425 1530 -425
14 0 2971 850 2975 855 1 2 34 379 74 838 39 459 87 1011 106 1225 32 364 82
937 255 2920 39 440 91 1032 115 1315 25 283 57 643 70 800 14 157 28 302 31
323 l6 37 -3651 0 -3650 0 4 -27z m5920 -2006 l0 -448 -1044 -427 -1043 -427
962 -3 962 -2 -6 -53 c-3 -28 -33 -367 -67 -752 -144 -1664 -175 -2014 -179
-2018 -10 -8 -1818 -567 -1835 -567 -25 0 -1908 520 -1918 530 -8 7 -126 1321
-127 1403 l0 27 453 -2 452 -3 40 -338 c31 -261 43 -340 55 -347 8 -4 224 -60
480 -125 l464 -117 131 26 c71 14 309 59 529 101 219 41 401 77 405 80 5 6
120 1113 121 1173 l0 32 -1577 0 c-868 0 -1583 4 -1589 8 -9 6 -136 852 -129
860 2 2 479 210 1061 463 581 252 1059 461 1062 464 3 3 -484 5 -1081 5 -863
0 -1087 3 -1087 13 0 6 -27 207 -60 446 -32 239 -57 438 -54 443 3 4 1043 7
2312 6 l2307 -3 0 -448z"/>
</g>
</svg>
